<?xml version="1.0" encoding="UTF-8" standalone="no"?>
<!-- Created with Inkscape (http://www.inkscape.org/) -->

<svg
   width="16"
   height="16"
   viewBox="0 0 16 16"
   version="1.1"
   id="svg299"
   inkscape:version="1.2.2 (732a01da63, 2022-12-09)"
   sodipodi:docname="raasserver.svg"
   inkscape:export-filename="raasserver.png"
   inkscape:export-xdpi="1536"
   inkscape:export-ydpi="1536"
   xmlns:inkscape="http://www.inkscape.org/namespaces/inkscape"
   xmlns:sodipodi="http://sodipodi.sourceforge.net/DTD/sodipodi-0.dtd"
   xmlns="http://www.w3.org/2000/svg"
   xmlns:svg="http://www.w3.org/2000/svg">
  <sodipodi:namedview
     id="namedview301"
     pagecolor="#ffffff"
     bordercolor="#000000"
     borderopacity="0.25"
     inkscape:showpageshadow="2"
     inkscape:pageopacity="0.0"
     inkscape:pagecheckerboard="0"
     inkscape:deskcolor="#d1d1d1"
     inkscape:document-units="mm"
     showgrid="true"
     showguides="false"
     inkscape:zoom="32"
     inkscape:cx="8.734375"
     inkscape:cy="6.203125"
     inkscape:window-width="1706"
     inkscape:window-height="996"
     inkscape:window-x="-8"
     inkscape:window-y="-8"
     inkscape:window-maximized="1"
     inkscape:current-layer="layer1">
    <inkscape:grid
       type="xygrid"
       id="grid310"
       dotted="true"
       originx="0"
       originy="0"
       empspacing="4" />
  </sodipodi:namedview>
  <defs
     id="defs296">
    <inkscape:path-effect
       effect="spiro"
       id="path-effect7838"
       is_visible="true"
       lpeversion="1" />
    <inkscape:path-effect
       effect="spiro"
       id="path-effect7734"
       is_visible="true"
       lpeversion="1" />
    <clipPath
       clipPathUnits="userSpaceOnUse"
       id="clipPath13005">
      <rect
         style="fill:none;stroke:none;stroke-width:0.147752;stroke-linecap:round;stroke-linejoin:round;stroke-miterlimit:4;stroke-dasharray:none;stroke-opacity:1"
         id="rect13007"
         width="6"
         height="15.900105"
         x="5"
         y="0.099895306"
         ry="0.75714779" />
    </clipPath>
  </defs>
  <g
     inkscape:label="Layer 1"
     inkscape:groupmode="layer"
     id="layer1">
    <g
       id="g421" />
    <path
       style="fill:none;stroke-width:4.24264"
       id="path3465"
       sodipodi:type="arc"
       sodipodi:cx="3.5"
       sodipodi:cy="8.9999933"
       sodipodi:rx="1.5"
       sodipodi:ry="6.0000067"
       sodipodi:start="0"
       sodipodi:end="4.7101658"
       sodipodi:arc-type="slice"
       d="M 5,8.9999933 A 1.5,6.0000067 0 0 1 3.5011116,14.999998 1.5,6.0000067 0 0 1 2.0000016,9.0088861 1.5,6.0000067 0 0 1 3.4966652,3.0000015 L 3.5,8.9999933 Z" />
    <path
       style="fill:none;stroke-width:1.11111"
       id="path3467"
       sodipodi:type="arc"
       sodipodi:cx="-8.0000057"
       sodipodi:cy="7.9999938"
       sodipodi:rx="5"
       sodipodi:ry="5.0000005"
       sodipodi:start="0"
       sodipodi:end="4.7101658"
       sodipodi:arc-type="slice"
       d="M -3.0000057,7.9999938 A 5,5.0000005 0 0 1 -7.9963004,12.999993 5,5.0000005 0 0 1 -13,8.0074044 5,5.0000005 0 0 1 -8.0111216,3.0000057 l 0.011116,4.9999881 z"
       clip-path="none"
       transform="rotate(-90)" />
    <rect
       style="fill:#ff0000;stroke:none;stroke-width:2;stroke-linecap:round;stroke-linejoin:round;stroke-miterlimit:4;stroke-dasharray:none;stroke-opacity:1"
       id="rect10170"
       width="6"
       height="16"
       x="5"
       y="0"
       ry="1" />
    <path
       style="fill:#ffff00;stroke:#ffff00;stroke-width:4;stroke-linecap:butt;stroke-linejoin:miter;stroke-opacity:1;stroke-dasharray:none"
       d="M 13,3 3,13"
       id="path10172"
       clip-path="url(#clipPath13005)" />
    <path
       style="fill:#0000ff;stroke:none;stroke-width:0.00685039;stroke-linecap:round;stroke-linejoin:round;stroke-miterlimit:4;stroke-dasharray:none;stroke-opacity:1"
       d="M 5.6844863,15.927703 C 5.4929321,15.860981 5.3070278,15.719353 5.1907435,15.551555 5.0390218,15.332621 5.015625,15.190412 5.015625,14.48716 V 13.843627 L 8.0003578,10.859314 10.985091,7.875 l -0.0082,3.6875 -0.0082,3.6875 -0.06781,0.146761 c -0.08681,0.187883 -0.316292,0.417361 -0.504175,0.504175 -0.145701,0.06732 -0.16267,0.06787 -2.349886,0.07503 -2.0406166,0.0067 -2.2148727,0.0031 -2.3623887,-0.04826 z"
       id="path13078" />
  </g>
</svg>
