<?xml version="1.0" encoding="UTF-8" standalone="no"?>
<!-- Created with Inkscape (http://www.inkscape.org/) -->

<svg
   xmlns:dc="http://purl.org/dc/elements/1.1/"
   xmlns:cc="http://creativecommons.org/ns#"
   xmlns:rdf="http://www.w3.org/1999/02/22-rdf-syntax-ns#"
   xmlns:svg="http://www.w3.org/2000/svg"
   xmlns="http://www.w3.org/2000/svg"
   xmlns:sodipodi="http://sodipodi.sourceforge.net/DTD/sodipodi-0.dtd"
   xmlns:inkscape="http://www.inkscape.org/namespaces/inkscape"
   width="200mm"
   height="200mm"
   viewBox="0 0 200 200"
   version="1.1"
   id="svg34"
   sodipodi:docname="raas_final_2.svg"
   inkscape:export-filename="C:\Users\Erik Lundin\raas_final2.png"
   inkscape:export-xdpi="96"
   inkscape:export-ydpi="96"
   inkscape:version="0.92.3 (2405546, 2018-03-11)">
  <defs
     id="defs28" />
  <sodipodi:namedview
     id="base"
     pagecolor="#ffffff"
     bordercolor="#666666"
     borderopacity="1.0"
     inkscape:pageopacity="0.0"
     inkscape:pageshadow="2"
     inkscape:zoom="1.4"
     inkscape:cx="251.16411"
     inkscape:cy="457.99565"
     inkscape:document-units="mm"
     inkscape:current-layer="layer1"
     showgrid="false"
     inkscape:window-width="1920"
     inkscape:window-height="1017"
     inkscape:window-x="1912"
     inkscape:window-y="-8"
     inkscape:window-maximized="1" />
  <metadata
     id="metadata31">
    <rdf:RDF>
      <cc:Work
         rdf:about="">
        <dc:format>image/svg+xml</dc:format>
        <dc:type
           rdf:resource="http://purl.org/dc/dcmitype/StillImage" />
        <dc:title></dc:title>
      </cc:Work>
    </rdf:RDF>
  </metadata>
  <g
     inkscape:label="Layer 1"
     inkscape:groupmode="layer"
     id="layer1"
     transform="translate(0,-97)">
    <path
       style="fill:#ff0000;fill-opacity:1;stroke-width:0.99999994;stroke:none"
       d="M 380.99414,6.6757812 488.57227,244.47656 322.85742,373.04883 377.01953,749.33398 a 371.42855,371.42855 0 0 0 0.93359,0.0469 A 371.42855,371.42855 0 0 0 749.38086,377.95312 371.42855,371.42855 0 0 0 380.99414,6.6757812 Z M 246.07812,30.865234 A 371.42855,371.42855 0 0 0 6.5234375,377.95312 371.42855,371.42855 0 0 0 376.77539,749.32227 L 208.57227,350.19141 360,241.61914 Z"
       transform="matrix(0.26458333,0,0,0.26458333,0,97)"
       id="path36"
       inkscape:connector-curvature="0" />
    <path
       style="fill:#ffff00;fill-opacity:1;stroke:#ffff00;stroke-width:1.01015258;stroke-opacity:1"
       d="M 292.04651,547.07698 C 246.59532,439.21099 209.62283,350.61684 209.88542,350.2011 c 0.26259,-0.41575 34.141,-24.84804 75.28536,-54.29398 41.14435,-29.44595 74.82122,-53.91101 74.83748,-54.36679 0.0163,-0.45579 -25.24476,-47.59256 -56.13559,-104.74837 C 272.98183,79.636149 247.63963,32.506642 247.55666,32.059726 c -0.24134,-1.30006 20.59733,-8.161635 39.2451,-12.922282 26.99314,-6.891161 49.55134,-10.1635935 77.78175,-11.2835 L 380.74595,7.2127764 431.18776,118.72999 c 27.74299,61.33447 51.87817,114.69919 53.63372,118.58828 l 3.19192,7.07107 -82.67561,64.12169 c -45.47159,35.26694 -82.67561,64.63357 -82.67561,65.25918 0,0.62561 11.8369,83.33285 26.30421,183.79386 14.46731,100.46103 26.17246,183.32611 26.01143,184.14465 -0.16103,0.81854 -37.48012,-86.76574 -82.93131,-194.63174 z"
       id="path875"
       inkscape:connector-curvature="0"
       transform="matrix(0.26458333,0,0,0.26458333,0,97)" />
    <path
       style="opacity:1;fill:#0000ff;fill-opacity:1;stroke:#0200ff;stroke-width:0.71428573;stroke-opacity:1"
       d="m 377.16411,748.40479 c 0,-0.35643 -0.81515,-6.2225 -1.81145,-13.03571 -10.58648,-72.39643 -51.74736,-360.44831 -51.59847,-361.09614 0.1076,-0.46816 6.94563,-6.22347 15.19563,-12.78958 13.59225,-10.81796 99.45806,-77.66381 135.15231,-105.21499 7.94091,-6.12932 14.44984,-11.48792 14.46429,-11.90799 0.0144,-0.42007 -24.03364,-53.93793 -53.44018,-118.92857 C 387.5617,20.310637 381.81852,7.2401552 383.09767,7.0237772 c 2.22767,-0.3768297 26.92415,1.230658 37.28072,2.4265938 123.78469,14.294154 232.4061,89.971583 288.54396,201.030919 41.10929,81.32783 50.97366,174.30251 27.81267,262.14286 -13.5811,51.50765 -39.20671,101.26212 -73.25138,142.22425 -60.6264,72.94495 -145.66729,119.48868 -239.89096,131.29475 -19.35394,2.425 -46.42857,3.74385 -46.42857,2.26164 z"
       id="path891"
       inkscape:connector-curvature="0"
       transform="matrix(0.26458333,0,0,0.26458333,0,97)" />
  </g>
</svg>
