<?xml version="1.0" encoding="UTF-8" standalone="no"?>
<!-- Created with Inkscape (http://www.inkscape.org/) -->

<svg
   width="16"
   height="16"
   viewBox="0 0 16 16"
   version="1.1"
   id="svg299"
   inkscape:version="1.2.2 (732a01da63, 2022-12-09)"
   sodipodi:docname="reboot.svg"
   inkscape:export-filename="reboot.png"
   inkscape:export-xdpi="1536"
   inkscape:export-ydpi="1536"
   xmlns:inkscape="http://www.inkscape.org/namespaces/inkscape"
   xmlns:sodipodi="http://sodipodi.sourceforge.net/DTD/sodipodi-0.dtd"
   xmlns="http://www.w3.org/2000/svg"
   xmlns:svg="http://www.w3.org/2000/svg">
  <sodipodi:namedview
     id="namedview301"
     pagecolor="#ffffff"
     bordercolor="#000000"
     borderopacity="0.25"
     inkscape:showpageshadow="2"
     inkscape:pageopacity="0.0"
     inkscape:pagecheckerboard="0"
     inkscape:deskcolor="#d1d1d1"
     inkscape:document-units="mm"
     showgrid="true"
     showguides="false"
     inkscape:zoom="32"
     inkscape:cx="8"
     inkscape:cy="8.703125"
     inkscape:window-width="1706"
     inkscape:window-height="996"
     inkscape:window-x="-8"
     inkscape:window-y="-8"
     inkscape:window-maximized="1"
     inkscape:current-layer="layer1">
    <inkscape:grid
       type="xygrid"
       id="grid310"
       dotted="true"
       originx="0"
       originy="0"
       empspacing="4" />
  </sodipodi:namedview>
  <defs
     id="defs296">
    <marker
       style="overflow:visible"
       id="Dot"
       refX="0"
       refY="0"
       orient="auto"
       inkscape:stockid="Dot"
       markerWidth="1"
       markerHeight="1"
       viewBox="0 0 5.6666667 5.6666667"
       inkscape:isstock="true"
       inkscape:collect="always"
       preserveAspectRatio="xMidYMid">
      <path
         transform="scale(0.5)"
         style="fill:context-stroke;fill-rule:evenodd;stroke:context-stroke;stroke-width:1pt"
         d="M 5,0 C 5,2.76 2.76,5 0,5 -2.76,5 -5,2.76 -5,0 c 0,-2.76 2.3,-5 5,-5 2.76,0 5,2.24 5,5 z"
         id="Dot1"
         sodipodi:nodetypes="sssss" />
    </marker>
    <marker
       style="overflow:visible"
       id="TriangleStart"
       refX="0"
       refY="0"
       orient="auto-start-reverse"
       inkscape:stockid="TriangleStart"
       markerWidth="2"
       markerHeight="2"
       viewBox="0 0 5.3244081 6.1553851"
       inkscape:isstock="true"
       inkscape:collect="always"
       preserveAspectRatio="none">
      <path
         transform="scale(0.5)"
         style="fill:context-stroke;fill-rule:evenodd;stroke:context-stroke;stroke-width:1pt"
         d="M 5.77,0 -2.88,5 V -5 Z"
         id="path135" />
    </marker>
    <inkscape:path-effect
       effect="spiro"
       id="path-effect7838"
       is_visible="true"
       lpeversion="1" />
    <inkscape:path-effect
       effect="spiro"
       id="path-effect7734"
       is_visible="true"
       lpeversion="1" />
  </defs>
  <g
     inkscape:label="Layer 1"
     inkscape:groupmode="layer"
     id="layer1">
    <g
       id="g421" />
    <circle
       style="fill:#ff0000"
       id="path3360"
       cx="8"
       cy="8"
       r="3" />
    <path
       style="fill:none"
       id="path3465"
       sodipodi:type="arc"
       sodipodi:cx="4"
       sodipodi:cy="3.5"
       sodipodi:rx="1"
       sodipodi:ry="0.5"
       sodipodi:start="0"
       sodipodi:end="4.7101658"
       sodipodi:arc-type="slice"
       d="M 5,3.5 A 1,0.5 0 0 1 4.0007411,3.9999999 1,0.5 0 0 1 3.0000011,3.5007411 1,0.5 0 0 1 3.9977768,3.0000012 L 4,3.5 Z" />
    <path
       style="fill:none;stroke-width:1.11111"
       id="path3467"
       sodipodi:type="arc"
       sodipodi:cx="-8.0000057"
       sodipodi:cy="7.9999938"
       sodipodi:rx="5"
       sodipodi:ry="5.0000005"
       sodipodi:start="0"
       sodipodi:end="4.7101658"
       sodipodi:arc-type="slice"
       d="M -3.0000057,7.9999938 A 5,5.0000005 0 0 1 -7.9963004,12.999993 5,5.0000005 0 0 1 -13,8.0074044 5,5.0000005 0 0 1 -8.0111216,3.0000057 l 0.011116,4.9999881 z"
       clip-path="none"
       transform="rotate(-90)" />
    <path
       style="fill:none;stroke:#000000;stroke-width:2;stroke-linecap:butt;stroke-linejoin:miter;stroke-dasharray:none;stroke-opacity:1;marker-start:url(#TriangleStart);marker-end:url(#Dot)"
       d="M 8,2 C 9.5707963,2 11.13192,2.6466386 12.242641,3.7573593 13.353361,4.86808 14,6.4292037 14,8 14,9.5707963 13.353361,11.13192 12.242641,12.242641 11.13192,13.353361 9.5707963,14 8,14 6.4292037,14 4.86808,13.353361 3.7573593,12.242641 2.6466386,11.13192 2,9.5707963 2,8"
       id="path7836"
       inkscape:path-effect="#path-effect7838"
       inkscape:original-d="M 8,2 C 9.999,4.001 11.999,6.001 14,8 16.001,9.999 5.999,8.001 2,8" />
  </g>
</svg>
